<svg width="21" height="20" viewBox="0 0 21 20" fill="none" xmlns="http://www.w3.org/2000/svg">
<g clip-path="url(#clip0_10_146)">
<path d="M0.333252 9.99999C0.333252 11.36 0.599919 12.6533 1.13325 13.88C1.66659 15.1067 2.37325 16.1733 3.25325 17.08C4.13325 17.9867 5.19992 18.7 6.45325 19.22C7.70658 19.74 8.99992 20 10.3333 20C11.6666 20 12.9599 19.74 14.2133 19.22C15.4666 18.7 16.5333 17.9867 17.4133 17.08C18.2933 16.1733 18.9999 15.1067 19.5333 13.88C20.0666 12.6533 20.3333 11.36 20.3333 9.99999C20.3333 8.63999 20.0666 7.34665 19.5333 6.11999C18.9999 4.89332 18.2933 3.82665 17.4133 2.91999C16.5333 2.01332 15.4733 1.30665 14.2333 0.799987C12.9933 0.29332 11.6933 0.0266538 10.3333 -1.28726e-05C8.97325 -0.0266795 7.67325 0.239987 6.43325 0.799987C5.19325 1.35999 4.13325 2.06665 3.25325 2.91999C2.37325 3.77332 1.66659 4.83999 1.13325 6.11999C0.599919 7.39999 0.333252 8.69332 0.333252 9.99999ZM2.83325 9.99999C2.83325 8.63999 3.16659 7.38665 3.83325 6.23999C4.49992 5.09332 5.41325 4.18665 6.57325 3.51999C7.73325 2.85332 8.98659 2.51332 10.3333 2.49999C11.6799 2.48665 12.9333 2.82665 14.0933 3.51999C15.2533 4.21332 16.1666 5.11999 16.8333 6.23999C17.4999 7.35999 17.8333 8.61332 17.8333 9.99999C17.8333 11.3867 17.4999 12.6467 16.8333 13.78C16.1666 14.9133 15.2533 15.82 14.0933 16.5C12.9333 17.18 11.6799 17.5133 10.3333 17.5C8.98659 17.4867 7.73325 17.1533 6.57325 16.5C5.41325 15.8467 4.49992 14.94 3.83325 13.78C3.16659 12.62 2.83325 11.36 2.83325 9.99999ZM6.61325 11.96C6.42659 12.6533 6.48659 13.18 6.79325 13.54C7.15325 13.8467 7.68658 13.9133 8.39325 13.74C9.09992 13.5667 9.80659 13.28 10.5133 12.88C11.2199 12.48 11.7466 12.1133 12.0933 11.78C12.4399 11.4467 12.8133 10.9133 13.2133 10.18C13.6133 9.44665 13.8933 8.73999 14.0533 8.05999C14.2133 7.37999 14.1533 6.85332 13.8733 6.47999C13.5133 6.17332 12.9799 6.10665 12.2733 6.27999C11.5666 6.45332 10.8599 6.73999 10.1533 7.13999C9.44658 7.53999 8.91992 7.90665 8.57325 8.23999C8.22658 8.57332 7.85325 9.10665 7.45325 9.83999C7.05325 10.5733 6.77325 11.28 6.61325 11.96ZM9.45325 9.11999C9.81325 8.75999 10.4399 8.31999 11.3333 7.79999C12.2266 7.27999 12.7799 7.13332 12.9933 7.35999C13.2066 7.58665 13.0533 8.13999 12.5333 9.01999C12.0133 9.89999 11.5733 10.52 11.2133 10.88L9.45325 9.11999Z" fill="#FFCE34"/>
</g>
<defs>
<clipPath id="clip0_10_146">
<rect width="20" height="20" fill="white" transform="translate(0.333252)"/>
</clipPath>
</defs>
</svg>
