<svg width="35" height="35" viewBox="0 0 35 35" fill="none" xmlns="http://www.w3.org/2000/svg">
<g clip-path="url(#clip0_10_184)">
<path fill-rule="evenodd" clip-rule="evenodd" d="M17.2003 24.7857C21.224 24.7857 24.486 21.5238 24.486 17.5C24.486 13.4762 21.224 10.2143 17.2003 10.2143C13.1765 10.2143 9.91455 13.4762 9.91455 17.5C9.91455 21.5238 13.1765 24.7857 17.2003 24.7857ZM22.0574 17.5C22.0574 20.1825 19.8827 22.3572 17.2003 22.3572C14.5178 22.3572 12.3431 20.1825 12.3431 17.5C12.3431 14.8175 14.5178 12.6429 17.2003 12.6429C19.8827 12.6429 22.0574 14.8175 22.0574 17.5Z" fill="#FFCE34"/>
<path fill-rule="evenodd" clip-rule="evenodd" d="M0.200195 16.2852V18.7138C0.200195 20.5938 1.62408 22.141 3.45216 22.336C3.60734 22.7772 3.78309 23.2085 3.97824 23.6289C2.78036 25.0601 2.85385 27.1949 4.19873 28.5398L5.91598 30.257C7.23025 31.5713 9.2989 31.6714 10.7281 30.5573C11.2555 30.8193 11.8013 31.0502 12.3628 31.2479C12.5579 33.076 14.1051 34.5 15.9851 34.5H18.4136C20.2931 34.5 21.8401 33.0767 22.0356 31.2491C22.546 31.0696 23.0432 30.8627 23.5255 30.63C24.9501 31.6663 26.9563 31.542 28.2412 30.257L29.9585 28.5398C31.2434 27.2548 31.3678 25.2487 30.3315 23.8241C30.5639 23.3423 30.7707 22.8457 30.95 22.3358C32.7773 22.1399 34.2002 20.593 34.2002 18.7138V16.2852C34.2002 14.406 32.7773 12.8592 30.95 12.6634C30.7522 12.101 30.521 11.5545 30.2587 11.0264C31.3719 9.59729 31.2716 7.52935 29.9576 6.21541L28.2404 4.49814C26.8958 3.15359 24.7617 3.07981 23.3305 4.27679C22.9094 4.08135 22.4774 3.90536 22.0355 3.75C21.8396 1.92286 20.2927 0.5 18.4136 0.5H15.9851C14.1055 0.5 12.5583 1.92352 12.363 3.75125C11.8668 3.92586 11.383 4.1265 10.9132 4.35148C9.48273 3.07733 7.28876 3.12621 5.91683 4.49814L4.19957 6.2154C2.82763 7.58735 2.77876 9.78133 4.05294 11.2118C3.82772 11.6821 3.6269 12.1664 3.45216 12.6631C1.62408 12.8581 0.200195 14.4054 0.200195 16.2852ZM19.6279 4.14286C19.6279 3.47223 19.0843 2.92857 18.4136 2.92857H15.9851C15.3144 2.92857 14.7708 3.47223 14.7708 4.14286V4.60755C14.7708 5.18499 14.3619 5.67621 13.8074 5.8373C12.9461 6.08751 12.1242 6.43058 11.3533 6.85494C10.8475 7.13342 10.2111 7.07513 9.80275 6.66681L9.35134 6.21541C8.87714 5.7412 8.1083 5.7412 7.63409 6.2154L5.91683 7.93267C5.44262 8.40687 5.44262 9.17572 5.91683 9.64992L6.36826 10.1013C6.77657 10.5097 6.83487 11.1461 6.55639 11.6519C6.1318 12.4232 5.78858 13.2455 5.53833 14.1074C5.3773 14.6621 4.88605 15.0709 4.30854 15.0709H3.84305C3.17243 15.0709 2.62877 15.6147 2.62877 16.2852V18.7138C2.62877 19.3845 3.17243 19.9281 3.84305 19.9281H4.30854C4.88605 19.9281 5.37729 20.3371 5.53833 20.8916C5.77321 21.7007 6.08999 22.4748 6.47908 23.2046C6.74765 23.7083 6.68564 24.3356 6.28201 24.7392L5.91598 25.1053C5.44178 25.5795 5.44178 26.3483 5.91598 26.8226L7.63325 28.5398C8.10745 29.014 8.8763 29.014 9.35051 28.5398L9.64597 28.2444C10.059 27.8313 10.7044 27.7769 11.2123 28.0653C12.0236 28.5262 12.8932 28.8963 13.8074 29.1619C14.3619 29.3229 14.7708 29.8142 14.7708 30.3916V30.8571C14.7708 31.5278 15.3144 32.0714 15.9851 32.0714H18.4136C19.0843 32.0714 19.6279 31.5278 19.6279 30.8571V30.3926C19.6279 29.815 20.0369 29.3237 20.5916 29.1627C21.4541 28.9125 22.277 28.5691 23.0487 28.1442C23.5546 27.8658 24.191 27.924 24.5993 28.3324L24.8067 28.5398C25.2809 29.014 26.0498 29.014 26.524 28.5398L28.2412 26.8226C28.7154 26.3483 28.7154 25.5795 28.2412 25.1053L28.0338 24.8979C27.6254 24.4895 27.5672 23.8531 27.8457 23.3473C28.2704 22.576 28.6135 21.7536 28.8638 20.8916C29.0248 20.3371 29.5161 19.9281 30.0936 19.9281H30.5573C31.228 19.9281 31.7716 19.3845 31.7716 18.7138V16.2852C31.7716 15.6147 31.228 15.0709 30.5573 15.0709H30.0936C29.5161 15.0709 29.0248 14.6621 28.8638 14.1074C28.5982 13.1928 28.228 12.3226 27.7668 11.5108C27.4783 11.003 27.5328 10.3575 27.9458 9.94448L28.2404 9.64992C28.7145 9.17572 28.7145 8.40687 28.2404 7.93267L26.5231 6.2154C26.0489 5.7412 25.2801 5.7412 24.8059 6.2154L24.4407 6.58051C24.0371 6.98414 23.4097 7.04617 22.906 6.7776C22.1759 6.38825 21.4011 6.07133 20.5916 5.83639C20.0369 5.67541 19.6279 5.18413 19.6279 4.60656V4.14286Z" fill="#FFCE34"/>
</g>
<defs>
<clipPath id="clip0_10_184">
<rect width="34" height="34" fill="white" transform="translate(0.200195 0.5)"/>
</clipPath>
</defs>
</svg>
