<svg width="25" height="25" viewBox="0 0 25 25" fill="none" xmlns="http://www.w3.org/2000/svg">
<rect width="25" height="24.5466" rx="12.2733" fill="white"/>
<path fill-rule="evenodd" clip-rule="evenodd" d="M10.3198 17.7549L8.89404 16.3303H7.9126C7.56958 16.3303 7.28882 16.0496 7.28882 15.7065V14.6445H6.69434V15.8872C6.69434 16.1521 6.47705 16.3694 6.21216 16.3694H5.48218C5.21729 16.3694 5 16.1521 5 15.8872V11.6758C5 11.4109 5.21729 11.1936 5.48218 11.1936H6.21216C6.47705 11.1936 6.69434 11.4109 6.69434 11.6758V12.9185H7.28882V11.7759C7.28882 11.4329 7.56958 11.1521 7.9126 11.1521H8.95508L10.4285 9.58594C10.5994 9.43701 10.8264 9.38452 11.0913 9.39551H17.1619C17.3718 9.4187 17.5317 9.49927 17.6294 9.65064C17.7271 9.79956 17.7112 9.88379 17.7112 10.051V12.9185H18.3057V11.6758C18.3057 11.4109 18.5229 11.1936 18.7878 11.1936H19.5178C19.7827 11.1936 20 11.4109 20 11.6758V15.8872C20 16.1521 19.7827 16.3694 19.5178 16.3694H18.7878C18.5229 16.3694 18.3057 16.1521 18.3057 15.8872V14.6445H17.7112V14.7568C17.7112 15.0901 17.7209 15.2915 17.5085 15.5674C17.4683 15.6199 17.4231 15.6699 17.373 15.7163L15.1965 17.8477C15.0879 17.9685 14.9231 18.0344 14.7058 18.0466H10.9949C10.7178 18.0344 10.4919 17.9392 10.3198 17.7549ZM12.7771 14.0415L11.2341 13.8962L12.5134 11.0935H14.2627L13.2703 12.7012L15.0549 12.8989L11.7786 16.832L12.7771 14.0415ZM11.3452 6.5H15.5566C15.8215 6.5 16.0388 6.71729 16.0388 6.98218V7.71216C16.0388 7.97705 15.8215 8.19434 15.5566 8.19434H14.314V8.80835H12.5879V8.19434H11.3452C11.0803 8.19434 10.863 7.97705 10.863 7.71216V6.98218C10.863 6.71729 11.0803 6.5 11.3452 6.5Z" fill="#059B42"/>
</svg>
