<svg width="35" height="31" viewBox="0 0 35 31" fill="none" xmlns="http://www.w3.org/2000/svg">
<g clip-path="url(#clip0_10_176)">
<path d="M2.53052 8.43679C2.53052 6.3548 2.53052 5.31381 2.90036 4.51861C3.22567 3.81911 3.74476 3.25041 4.38325 2.89402C5.10909 2.48883 6.05929 2.48883 7.95966 2.48883H13.8546C14.6845 2.48883 15.0995 2.48883 15.49 2.59154C15.8362 2.6826 16.1672 2.83281 16.4709 3.03664C16.8132 3.26653 17.1067 3.58799 17.6936 4.23095L17.9064 4.46418C18.4932 5.10714 18.7867 5.42861 19.1291 5.6585C19.4328 5.86232 19.7638 6.01253 20.1099 6.10359C20.5005 6.2063 20.9155 6.2063 21.7454 6.2063H27.6403C29.5407 6.2063 30.4909 6.2063 31.2167 6.61149C31.8552 6.96788 32.3743 7.53658 32.6996 8.23608C33.0694 9.03128 33.0694 10.0723 33.0694 12.1543V22.5632C33.0694 24.6451 33.0694 25.6862 32.6996 26.4814C32.3743 27.1808 31.8552 27.7496 31.2167 28.1059C30.4909 28.5111 29.5407 28.5111 27.6403 28.5111H7.95966C6.05927 28.5111 5.10909 28.5111 4.38325 28.1059C3.74476 27.7496 3.22567 27.1808 2.90036 26.4814C2.53052 25.6862 2.53052 24.6451 2.53052 22.5632V8.43679Z" stroke="#FFCE34" stroke-width="3" stroke-linecap="round" stroke-linejoin="round"/>
</g>
<defs>
<clipPath id="clip0_10_176">
<rect width="34" height="30" fill="white" transform="translate(0.800049 0.5)"/>
</clipPath>
</defs>
</svg>
