<svg width="15" height="15" viewBox="0 0 15 15" fill="none" xmlns="http://www.w3.org/2000/svg">
<g clip-path="url(#clip0_18_2)">
<path d="M7.03125 0.4375C8.33864 0.4375 9.40625 1.50511 9.40625 2.8125C9.40625 3.01034 9.37806 3.20175 9.33203 3.38574C9.48725 3.2941 9.66438 3.25 9.84375 3.25H11.3242L11.9746 2.59961C12.051 2.52322 12.1472 2.44588 12.2715 2.39062C12.398 2.33441 12.5276 2.3125 12.6562 2.3125H14.0625C14.3167 2.3125 14.5674 2.39947 14.7559 2.58789C14.9443 2.77631 15.0312 3.027 15.0312 3.28125C15.0312 3.5355 14.9443 3.78619 14.7559 3.97461C14.6313 4.09916 14.4794 4.17869 14.3174 4.21875C14.4794 4.25881 14.6313 4.33834 14.7559 4.46289C14.9443 4.65131 15.0312 4.902 15.0312 5.15625C15.0312 5.4105 14.9443 5.66119 14.7559 5.84961C14.5674 6.03803 14.3167 6.125 14.0625 6.125H12.6562C12.5276 6.125 12.398 6.10309 12.2715 6.04688C12.1472 5.99162 12.051 5.91428 11.9746 5.83789L11.3242 5.1875H10.8125V7.00195C11.2016 7.01365 11.5759 7.2413 11.7109 7.62598L11.7354 7.70703L11.7383 7.71973L12.3193 10.3369C13.2758 10.5569 14 11.3863 14 12.4219C14 13.5886 13.0261 14.5625 11.8594 14.5625C10.9669 14.5625 10.1663 13.9826 9.87402 13.1562H9.20703C8.92537 13.9775 8.15804 14.5625 7.21875 14.5625C6.3263 14.5625 5.52563 13.9826 5.2334 13.1562H4.56641C4.28475 13.9775 3.51741 14.5625 2.57812 14.5625C1.41136 14.5625 0.4375 13.5886 0.4375 12.4219C0.4375 11.407 1.14781 10.5136 2.13184 10.3203L2.79688 7.70508C2.90859 7.26207 3.32384 7 3.75 7H4.65625V5.1875H4.21875C2.91136 5.1875 1.84375 4.11989 1.84375 2.8125C1.84375 1.50511 2.91136 0.4375 4.21875 0.4375H7.03125ZM2.57812 12.2188C2.47927 12.2188 2.375 12.323 2.375 12.4219C2.375 12.5207 2.47927 12.625 2.57812 12.625C2.67698 12.625 2.78125 12.5207 2.78125 12.4219C2.78125 12.323 2.67698 12.2188 2.57812 12.2188ZM7.26562 12.2188C7.16677 12.2188 7.0625 12.323 7.0625 12.4219C7.0625 12.5207 7.16677 12.625 7.26562 12.625C7.36448 12.625 7.46875 12.5207 7.46875 12.4219C7.46875 12.323 7.36448 12.2188 7.26562 12.2188ZM11.9531 12.2188C11.8543 12.2188 11.75 12.323 11.75 12.4219C11.75 12.5207 11.8543 12.625 11.9531 12.625C12.052 12.625 12.1562 12.5207 12.1562 12.4219C12.1562 12.323 12.052 12.2188 11.9531 12.2188ZM8.875 4.30371C8.43884 4.84156 7.77439 5.1875 7.03125 5.1875H6.59375V7H8.875V4.30371Z" fill="#FFCE34" stroke="#BF0000"/>
</g>
<defs>
<clipPath id="clip0_18_2">
<rect width="15" height="15" fill="white"/>
</clipPath>
</defs>
</svg>
