<svg width="30" height="31" viewBox="0 0 30 31" fill="none" xmlns="http://www.w3.org/2000/svg">
<path d="M20.1786 2.0625C19.6607 2.0625 19.2411 2.48224 19.2411 3C19.2411 3.51776 19.6607 3.9375 20.1786 3.9375H25.2366L18.0871 11.0871C17.721 11.4532 17.721 12.0468 18.0871 12.4129C18.4532 12.779 19.0467 12.779 19.4128 12.4129L26.5625 5.26332V10.3214C26.5625 10.8392 26.9822 11.2589 27.5 11.2589C28.0177 11.2589 28.4375 10.8392 28.4375 10.3214V3C28.4375 2.48224 28.0177 2.0625 27.5 2.0625H20.1786Z" fill="white"/>
<path d="M9.82143 28.9375C10.3392 28.9375 10.7589 28.5177 10.7589 28C10.7589 27.4822 10.3392 27.0625 9.82143 27.0625H4.76332L11.9129 19.9129C12.279 19.5467 12.279 18.9532 11.9129 18.5871C11.5468 18.221 10.9532 18.221 10.5871 18.5871L3.4375 25.7366V20.6786C3.4375 20.1607 3.01776 19.7411 2.5 19.7411C1.98224 19.7411 1.5625 20.1607 1.5625 20.6786V28C1.5625 28.5177 1.98224 28.9375 2.5 28.9375H9.82143Z" fill="white"/>
</svg>
