<svg width="30" height="31" viewBox="0 0 30 31" fill="none" xmlns="http://www.w3.org/2000/svg">
<path d="M26.0714 12.6875C26.5892 12.6875 27.0089 12.2678 27.0089 11.75C27.0089 11.2322 26.5892 10.8125 26.0714 10.8125H21.0134L28.1629 3.66291C28.529 3.2968 28.529 2.7032 28.1629 2.33708C27.7968 1.97097 27.2032 1.97097 26.8371 2.33708L19.6875 9.48667V4.42857C19.6875 3.9108 19.2678 3.49107 18.75 3.49107C18.2322 3.49107 17.8125 3.9108 17.8125 4.42857V11.75C17.8125 12.2678 18.2322 12.6875 18.75 12.6875H26.0714Z" fill="white"/>
<path d="M3.92857 18.3125C3.4108 18.3125 2.99107 18.7322 2.99107 19.25C2.99107 19.7678 3.4108 20.1875 3.92857 20.1875H8.98667L1.83708 27.3371C1.47097 27.7032 1.47097 28.2968 1.83708 28.6629C2.2032 29.029 2.7968 29.029 3.16291 28.6629L10.3125 21.5134V26.5714C10.3125 27.0892 10.7322 27.5089 11.25 27.5089C11.7678 27.5089 12.1875 27.0892 12.1875 26.5714V19.25C12.1875 18.7322 11.7678 18.3125 11.25 18.3125H3.92857Z" fill="white"/>
</svg>
