<svg width="15" height="13" viewBox="0 0 15 13" fill="none" xmlns="http://www.w3.org/2000/svg">
<path fill-rule="evenodd" clip-rule="evenodd" d="M5.31982 11.7549L3.89404 10.3303H2.9126C2.56958 10.3303 2.28882 10.0496 2.28882 9.70654V8.64453H1.69434V9.88721C1.69434 10.1521 1.47705 10.3694 1.21216 10.3694H0.482178C0.217285 10.3694 0 10.1521 0 9.88721V5.67578C0 5.41089 0.217285 5.1936 0.482178 5.1936H1.21216C1.47705 5.1936 1.69434 5.41089 1.69434 5.67578V6.91846H2.28882V5.77588C2.28882 5.43286 2.56958 5.1521 2.9126 5.1521H3.95508L5.42847 3.58594C5.59937 3.43701 5.82642 3.38452 6.09131 3.39551H12.1619C12.3718 3.4187 12.5317 3.49927 12.6294 3.65064C12.7271 3.79956 12.7112 3.88379 12.7112 4.05103V6.91846H13.3057V5.67578C13.3057 5.41089 13.5229 5.1936 13.7878 5.1936H14.5178C14.7827 5.1936 15 5.41089 15 5.67578V9.88721C15 10.1521 14.7827 10.3694 14.5178 10.3694H13.7878C13.5229 10.3694 13.3057 10.1521 13.3057 9.88721V8.64453H12.7112V8.75684C12.7112 9.09009 12.7209 9.2915 12.5085 9.56738C12.4683 9.61987 12.4231 9.66992 12.373 9.71631L10.1965 11.8477C10.0879 11.9685 9.9231 12.0344 9.70581 12.0466H5.99487C5.71777 12.0344 5.49194 11.9392 5.31982 11.7549ZM7.7771 8.0415L6.23413 7.89624L7.51343 5.09351H9.2627L8.27026 6.70117L10.0549 6.89893L6.77856 10.832L7.7771 8.0415ZM6.34521 0.5H10.5566C10.8215 0.5 11.0388 0.717285 11.0388 0.982178V1.71216C11.0388 1.97705 10.8215 2.19434 10.5566 2.19434H9.31396V2.80835H7.58789V2.19434H6.34521C6.08032 2.19434 5.86304 1.97705 5.86304 1.71216V0.982178C5.86304 0.717285 6.08032 0.5 6.34521 0.5Z" fill="#059B42"/>
</svg>
