<svg width="21" height="16" viewBox="0 0 21 16" fill="none" xmlns="http://www.w3.org/2000/svg">
<path d="M6.01995 12.9602H13.9802M6.01995 12.9602C6.01995 14.0593 5.12898 14.9502 4.0299 14.9502C2.93083 14.9502 2.03985 14.0593 2.03985 12.9602M6.01995 12.9602C6.01995 11.8611 5.12898 10.9701 4.0299 10.9701C2.93083 10.9701 2.03985 11.8611 2.03985 12.9602M13.9802 12.9602C13.9802 14.0593 14.8711 14.9502 15.9702 14.9502C17.0693 14.9502 17.9603 14.0593 17.9603 12.9602M13.9802 12.9602C13.9802 11.8611 14.8711 10.9701 15.9702 10.9701C17.0693 10.9701 17.9603 11.8611 17.9603 12.9602M2.03985 12.9602H1.64184C1.08458 12.9602 0.805944 12.9602 0.593098 12.8517C0.405874 12.7563 0.253655 12.6042 0.158252 12.4169C0.0498046 12.2041 0.0498047 11.9255 0.0498047 11.3682V10.1741C0.0498047 9.0596 0.0498046 8.50229 0.26671 8.07661C0.457496 7.70219 0.761934 7.39771 1.13639 7.20696C1.56208 6.99005 2.11936 6.99005 3.23388 6.99005H15.1742C15.9137 6.99005 16.2834 6.99005 16.5928 7.039C18.2959 7.30875 19.6316 8.64447 19.9013 10.3476C19.9503 10.6569 19.9503 11.0267 19.9503 11.7662C19.9503 11.951 19.9503 12.0435 19.9381 12.1208C19.8706 12.5466 19.5367 12.8805 19.1109 12.948C19.0336 12.9602 18.9411 12.9602 18.7563 12.9602H17.9603M8.01 1.0199V6.99005M2.03985 6.99005L2.36972 5.01082C2.60603 3.59296 2.72419 2.88403 3.07796 2.35204C3.38981 1.88308 3.82796 1.51191 4.3418 1.2814C4.92473 1.0199 5.64344 1.0199 7.08086 1.0199H10.429C11.3635 1.0199 11.8308 1.0199 12.255 1.1487C12.6305 1.26274 12.9798 1.44969 13.2829 1.69886C13.6254 1.98033 13.8846 2.36912 14.403 3.1467L16.9652 6.99005" stroke="#FFCE34" stroke-width="2" stroke-linecap="round" stroke-linejoin="round"/>
</svg>
