<svg width="25" height="26" viewBox="0 0 25 26" fill="none" xmlns="http://www.w3.org/2000/svg">
<path d="M17.0691 17.5689C15.0001 19.6379 15.0001 23.0862 17.0691 25.2414C17.2415 25.4138 17.4139 25.5 17.6725 25.5C17.9311 25.5 18.1035 25.4138 18.276 25.2414L20.8622 22.6552L22.5863 24.3793C22.7587 24.5517 23.0173 24.6379 23.1897 24.6379C23.3622 24.6379 23.6208 24.5517 23.7932 24.3793C24.138 24.0345 24.138 23.5172 23.7932 23.1724L22.0691 21.4483L24.6553 18.862C25.0001 18.5172 25.0001 18 24.6553 17.6552C22.6725 15.5 19.2242 15.5 17.0691 17.5689Z" fill="#FFCE34"/>
<path d="M17.8448 13.6896L15.431 11.2758L16.8103 9.89652L19.2241 12.3103C19.3965 12.4827 19.6551 12.5689 19.8276 12.5689C20 12.5689 20.2586 12.4827 20.431 12.3103L21.9827 10.7586L14.7414 3.51722L13.1896 5.06894C12.8448 5.41377 12.8448 5.93101 13.1896 6.27584L15.6034 8.68963L14.2241 10.0689L7.49997 3.3448C7.15515 2.99997 6.63791 2.99997 6.29308 3.3448L2.8448 6.79308C2.49997 7.13791 2.49997 7.65515 2.8448 7.99997L9.56894 14.7241L8.18963 16.1034L5.77584 13.6896C5.43101 13.3448 4.91377 13.3448 4.56894 13.6896L3.01722 15.2414L10.2586 22.4827L11.8103 20.931C12.1551 20.5862 12.1551 20.0689 11.8103 19.7241L9.39653 17.3103L10.7758 15.931L13.1896 18.3448C13.362 18.5172 13.6207 18.6034 13.7931 18.6034C13.9655 18.6034 14.2241 18.5172 14.3965 18.3448L17.8448 14.8965C18.1896 14.5517 18.1896 14.0345 17.8448 13.6896Z" fill="#FFCE34"/>
<path d="M0.258621 18C-0.0862069 18.3448 -0.0862069 18.862 0.258621 19.2069L6.2931 25.2413C6.46552 25.4138 6.63793 25.5 6.89655 25.5C7.15517 25.5 7.32759 25.4138 7.5 25.2413L9.05172 23.6896L1.81034 16.4482L0.258621 18Z" fill="#FFCE34"/>
<path d="M24.7413 8C25.0862 7.65517 25.0862 7.13793 24.7413 6.7931L18.7069 0.758621C18.362 0.413793 17.8448 0.413793 17.5 0.758621L15.9482 2.31034L23.1896 9.55172L24.7413 8Z" fill="#FFCE34"/>
</svg>
