<svg width="21" height="16" viewBox="0 0 21 16" fill="none" xmlns="http://www.w3.org/2000/svg">
<path d="M14.1865 4.07167C16.3148 6.24122 16.3148 9.75881 14.1865 11.9284M6.4797 11.9284C4.3515 9.75881 4.3515 6.24122 6.4797 4.07164M3.91073 14.5473C0.36374 10.9313 0.36374 5.06872 3.91073 1.45276M16.7556 1.4528C20.3025 5.06876 20.3025 10.9314 16.7556 14.5473M12.1497 8.00002C12.1497 9.0228 11.3364 9.85187 10.3331 9.85187C9.32987 9.85187 8.51661 9.0228 8.51661 8.00002C8.51661 6.97733 9.32987 6.14817 10.3331 6.14817C11.3364 6.14817 12.1497 6.97733 12.1497 8.00002Z" stroke="#FFCE34" stroke-width="2" stroke-linecap="round" stroke-linejoin="round"/>
</svg>
