<svg width="20" height="14" viewBox="0 0 20 14" fill="none" xmlns="http://www.w3.org/2000/svg">
<path d="M1.14062 10.2473C1.14062 9.11198 1.36978 7.9878 1.815 6.93893C2.26023 5.89011 2.91281 4.93707 3.73548 4.1343C4.55814 3.33155 5.53479 2.69475 6.60965 2.2603C7.68452 1.82585 8.83653 1.60223 9.99998 1.60223C11.1634 1.60223 12.3155 1.82585 13.3903 2.26031C14.4652 2.69475 15.4418 3.33155 16.2645 4.13432C17.0871 4.93709 17.7397 5.89011 18.1849 6.93893C18.6302 7.9878 18.8593 9.11198 18.8593 10.2473" stroke="#FFCE34" stroke-width="2" stroke-linejoin="round"/>
<path d="M7.78516 11.328C7.78516 11.0442 7.84241 10.7631 7.95371 10.5008C8.06511 10.2387 8.22824 10.0004 8.43388 9.79972C8.63953 9.59905 8.88372 9.43987 9.15238 9.33116C9.42115 9.22256 9.70919 9.16669 10 9.16669C10.2908 9.16669 10.5788 9.22256 10.8476 9.33116C11.1163 9.43987 11.3605 9.59905 11.5661 9.79972C11.7718 10.0004 11.935 10.2387 12.0463 10.5008C12.1576 10.7631 12.2148 11.0442 12.2148 11.328" stroke="#FFCE34" stroke-width="2" stroke-linejoin="round"/>
<path d="M11.1074 9.16664L13.3223 5.92474" stroke="#FFCE34" stroke-width="2" stroke-linecap="round" stroke-linejoin="round"/>
<path d="M18.8593 10.2473V11.3279C18.8593 11.9248 18.3635 12.4086 17.7519 12.4086H2.24804C1.63644 12.4086 1.14062 11.9248 1.14062 11.3279V10.2473" stroke="#FFCE34" stroke-width="2" stroke-linecap="round" stroke-linejoin="round"/>
</svg>
