<svg width="21" height="22" viewBox="0 0 21 22" fill="none" xmlns="http://www.w3.org/2000/svg">
<g clip-path="url(#clip0_10_161)">
<path d="M8.68872 7.25897C8.68872 6.65395 9.17801 6.16351 9.78162 6.16351H11.9674C12.571 6.16351 13.0603 6.65395 13.0603 7.25897V16.0227C13.0603 16.6277 12.571 17.1181 11.9674 17.1181H9.78162C9.17801 17.1181 8.68872 16.6277 8.68872 16.0227V7.25897Z" stroke="#FFCE34" stroke-width="2" stroke-linecap="round" stroke-linejoin="round"/>
<path d="M1.92358 11.6409C1.92358 11.0358 2.4129 10.5454 3.01648 10.5454H5.20227C5.80586 10.5454 6.29517 11.0358 6.29517 11.6409V16.0227C6.29517 16.6277 5.80586 17.1182 5.20227 17.1182H3.01648C2.4129 17.1182 1.92358 16.6277 1.92358 16.0227V11.6409Z" stroke="#FFCE34" stroke-width="2" stroke-linecap="round" stroke-linejoin="round"/>
<path d="M15.4536 2.87714C15.4536 2.27214 15.9429 1.78168 16.5465 1.78168H18.7323C19.3359 1.78168 19.8252 2.27214 19.8252 2.87714V16.0227C19.8252 16.6277 19.3359 17.1181 18.7323 17.1181H16.5465C15.9429 17.1181 15.4536 16.6277 15.4536 16.0227V2.87714Z" stroke="#FFCE34" stroke-width="2" stroke-linecap="round" stroke-linejoin="round"/>
</g>
<defs>
<clipPath id="clip0_10_161">
<rect width="20" height="21" fill="white" transform="translate(0.666748 0.5)"/>
</clipPath>
</defs>
</svg>
