<svg width="15" height="15" viewBox="0 0 15 15" fill="none" xmlns="http://www.w3.org/2000/svg">
<path d="M12.5053 5.04492L14.8322 7.43261C15.1134 7.72522 15.0331 7.9508 14.6518 7.9508H12.9065V14.1892C12.9065 14.6173 12.5855 15 12.2042 15H9.17506V10.6304C9.17506 10.2023 8.83421 9.81958 8.45292 9.81958H6.54709C6.16579 9.81958 5.82494 10.2023 5.82494 10.6304V15H2.79576C2.41447 15 2.07362 14.6173 2.07362 14.1892V7.9508H0.348163C-0.0331316 7.9508 -0.11337 7.72522 0.167786 7.43261L6.96818 0.495844C7.24933 0.203239 7.73077 0.203239 8.03118 0.495844L9.57561 2.04968V0.810791C9.57561 0.382694 9.91647 0 10.2978 0H11.8024C12.1837 0 12.5046 0.382694 12.5046 0.810791L12.5053 5.04492Z" fill="#DE5799"/>
</svg>
